<svg id="visual" viewBox="0 0 1800 1200" width="1800" height="1200" xmlns="http://www.w3.org/2000/svg" xmlns:xlink="http://www.w3.org/1999/xlink" version="1.1"><rect x="0" y="0" width="1800" height="1200" fill="#A3218E"></rect><defs><linearGradient id="grad1_0" x1="33.3%" y1="0%" x2="100%" y2="100%"><stop offset="20%" stop-color="#a3218e" stop-opacity="1"></stop><stop offset="80%" stop-color="#a3218e" stop-opacity="1"></stop></linearGradient></defs><defs><linearGradient id="grad2_0" x1="0%" y1="0%" x2="66.7%" y2="100%"><stop offset="20%" stop-color="#a3218e" stop-opacity="1"></stop><stop offset="80%" stop-color="#a3218e" stop-opacity="1"></stop></linearGradient></defs><g transform="translate(1800, 0)"><path d="M0 973.5C-124.2 935.6 -248.4 897.7 -346.3 836.1C-444.3 774.5 -516.1 689.1 -613.8 613.8C-711.5 538.4 -835.1 473.2 -899.4 372.5C-963.7 271.9 -968.6 136 -973.5 0L0 0Z" fill="#0fb755"></path></g><g transform="translate(0, 1200)"><path d="M0 -973.5C137.8 -970 275.7 -966.5 372.5 -899.4C469.4 -832.3 525.3 -701.5 606 -606C686.6 -510.5 792 -450.3 857.4 -355.1C922.7 -260 948.1 -130 973.5 0L0 0Z" fill="#0fb755"></path></g></svg>