<svg id="visual" viewBox="0 0 1800 1200" width="1800" height="1200" xmlns="http://www.w3.org/2000/svg" xmlns:xlink="http://www.w3.org/1999/xlink" version="1.1"><rect x="0" y="0" width="1800" height="1200" fill="#A3218E"></rect><defs><linearGradient id="grad1_0" x1="33.3%" y1="0%" x2="100%" y2="100%"><stop offset="20%" stop-color="#a3218e" stop-opacity="1"></stop><stop offset="80%" stop-color="#a3218e" stop-opacity="1"></stop></linearGradient></defs><defs><linearGradient id="grad2_0" x1="0%" y1="0%" x2="66.7%" y2="100%"><stop offset="20%" stop-color="#a3218e" stop-opacity="1"></stop><stop offset="80%" stop-color="#a3218e" stop-opacity="1"></stop></linearGradient></defs><g transform="translate(1800, 0)"><path d="M0 973.5C-54.4 947.3 -108.7 921.1 -157.8 895.2C-207 869.3 -250.8 843.8 -304.1 835.4C-357.3 827 -419.9 835.6 -474.5 821.9C-529.1 808.1 -575.6 771.9 -609.4 726.2C-643.1 680.6 -664 625.5 -678.7 569.5C-693.5 513.5 -702.1 456.6 -699.7 404C-697.4 351.4 -684 303.1 -736.7 268.1C-789.4 233.2 -908.2 211.5 -958.7 169C-1009.2 126.6 -991.3 63.3 -973.5 0L0 0Z" fill="#0fb755"></path></g><g transform="translate(0, 1200)"><path d="M0 -973.5C61.2 -986.3 122.4 -999.1 169 -958.7C215.7 -918.3 247.7 -824.8 279.4 -767.7C311.2 -710.7 342.8 -690 398 -689.4C453.2 -688.7 532.1 -707.9 570.8 -680.2C609.5 -652.6 607.9 -577.9 631.2 -529.7C654.5 -481.4 702.6 -459.5 729.2 -421C755.8 -382.5 761 -327.5 766.8 -279.1C772.6 -230.7 778.9 -188.8 813.5 -143.4C848 -98 910.7 -49 973.5 0L0 0Z" fill="#0fb755"></path></g></svg>