<svg id="visual" viewBox="0 0 960 300" width="960" height="300" xmlns="http://www.w3.org/2000/svg" xmlns:xlink="http://www.w3.org/1999/xlink" version="1.1"><rect x="0" y="0" width="960" height="300" fill="#FFFFFF"></rect><path d="M0 257L22.8 256C45.7 255 91.3 253 137 247.5C182.7 242 228.3 233 274 227.8C319.7 222.7 365.3 221.3 411.2 224C457 226.7 503 233.3 548.8 238.2C594.7 243 640.3 246 686 244.8C731.7 243.7 777.3 238.3 823 232.5C868.7 226.7 914.3 220.3 937.2 217.2L960 214L960 301L937.2 301C914.3 301 868.7 301 823 301C777.3 301 731.7 301 686 301C640.3 301 594.7 301 548.8 301C503 301 457 301 411.2 301C365.3 301 319.7 301 274 301C228.3 301 182.7 301 137 301C91.3 301 45.7 301 22.8 301L0 301Z" fill="#d4d8e2" stroke-linecap="round" stroke-linejoin="miter"></path></svg>